<?xml version="1.0" encoding="UTF-8" standalone="no"?>
<!DOCTYPE svg PUBLIC "-//W3C//DTD SVG 1.1//EN"
 "http://www.w3.org/Graphics/SVG/1.1/DTD/svg11.dtd">
<!-- Generated by graphviz version 2.44.1 (0)
 -->
<!-- Pages: 1 -->
<svg width="4547pt" height="548pt"
 viewBox="0.00 0.00 4547.04 548.00" xmlns="http://www.w3.org/2000/svg" xmlns:xlink="http://www.w3.org/1999/xlink">
<g id="graph0" class="graph" transform="scale(1 1) rotate(0) translate(4 544)">
<polygon fill="white" stroke="transparent" points="-4,4 -4,-544 4543.04,-544 4543.04,4 -4,4"/>
<!-- 0 -->
<g id="node1" class="node">
<title>0</title>
<ellipse fill="none" stroke="black" cx="316.52" cy="-90" rx="316.54" ry="18"/>
<text text-anchor="middle" x="316.52" y="-86.3" font-family="Times,serif" font-size="14.00">Node { id: &quot;00000004_departure_1&quot;, time: 190, kind: Departure }</text>
</g>
<!-- 1 -->
<g id="node2" class="node">
<title>1</title>
<ellipse fill="none" stroke="black" cx="316.52" cy="-18" rx="284.85" ry="18"/>
<text text-anchor="middle" x="316.52" y="-14.3" font-family="Times,serif" font-size="14.00">Node { id: &quot;00000005_arrival_1&quot;, time: 220, kind: Arrival }</text>
</g>
<!-- 0&#45;&gt;1 -->
<g id="edge1" class="edge">
<title>0&#45;&gt;1</title>
<path fill="none" stroke="black" d="M316.52,-71.7C316.52,-63.98 316.52,-54.71 316.52,-46.11"/>
<polygon fill="black" stroke="black" points="320.02,-46.1 316.52,-36.1 313.02,-46.1 320.02,-46.1"/>
</g>
<!-- 2 -->
<g id="node3" class="node">
<title>2</title>
<ellipse fill="none" stroke="black" cx="967.52" cy="-522" rx="316.54" ry="18"/>
<text text-anchor="middle" x="967.52" y="-518.3" font-family="Times,serif" font-size="14.00">Node { id: &quot;00000006_departure_3&quot;, time: 130, kind: Departure }</text>
</g>
<!-- 3 -->
<g id="node4" class="node">
<title>3</title>
<ellipse fill="none" stroke="black" cx="967.52" cy="-450" rx="284.85" ry="18"/>
<text text-anchor="middle" x="967.52" y="-446.3" font-family="Times,serif" font-size="14.00">Node { id: &quot;00000005_arrival_3&quot;, time: 180, kind: Arrival }</text>
</g>
<!-- 2&#45;&gt;3 -->
<g id="edge2" class="edge">
<title>2&#45;&gt;3</title>
<path fill="none" stroke="black" d="M967.52,-503.7C967.52,-495.98 967.52,-486.71 967.52,-478.11"/>
<polygon fill="black" stroke="black" points="971.02,-478.1 967.52,-468.1 964.02,-478.1 971.02,-478.1"/>
</g>
<!-- 4 -->
<g id="node5" class="node">
<title>4</title>
<ellipse fill="none" stroke="black" cx="1618.52" cy="-522" rx="316.54" ry="18"/>
<text text-anchor="middle" x="1618.52" y="-518.3" font-family="Times,serif" font-size="14.00">Node { id: &quot;00000006_departure_4&quot;, time: 125, kind: Departure }</text>
</g>
<!-- 5 -->
<g id="node6" class="node">
<title>5</title>
<ellipse fill="none" stroke="black" cx="1618.52" cy="-450" rx="284.85" ry="18"/>
<text text-anchor="middle" x="1618.52" y="-446.3" font-family="Times,serif" font-size="14.00">Node { id: &quot;00000009_arrival_4&quot;, time: 170, kind: Arrival }</text>
</g>
<!-- 4&#45;&gt;5 -->
<g id="edge3" class="edge">
<title>4&#45;&gt;5</title>
<path fill="none" stroke="black" d="M1618.52,-503.7C1618.52,-495.98 1618.52,-486.71 1618.52,-478.11"/>
<polygon fill="black" stroke="black" points="1622.02,-478.1 1618.52,-468.1 1615.02,-478.1 1622.02,-478.1"/>
</g>
<!-- 6 -->
<g id="node7" class="node">
<title>6</title>
<ellipse fill="none" stroke="black" cx="2269.52" cy="-522" rx="316.54" ry="18"/>
<text text-anchor="middle" x="2269.52" y="-518.3" font-family="Times,serif" font-size="14.00">Node { id: &quot;00000001_departure_6&quot;, time: 105, kind: Departure }</text>
</g>
<!-- 7 -->
<g id="node8" class="node">
<title>7</title>
<ellipse fill="none" stroke="black" cx="2269.52" cy="-450" rx="284.85" ry="18"/>
<text text-anchor="middle" x="2269.52" y="-446.3" font-family="Times,serif" font-size="14.00">Node { id: &quot;00000007_arrival_6&quot;, time: 120, kind: Arrival }</text>
</g>
<!-- 6&#45;&gt;7 -->
<g id="edge4" class="edge">
<title>6&#45;&gt;7</title>
<path fill="none" stroke="black" d="M2269.52,-503.7C2269.52,-495.98 2269.52,-486.71 2269.52,-478.11"/>
<polygon fill="black" stroke="black" points="2273.02,-478.1 2269.52,-468.1 2266.02,-478.1 2273.02,-478.1"/>
</g>
<!-- 12 -->
<g id="node13" class="node">
<title>12</title>
<ellipse fill="none" stroke="black" cx="2269.52" cy="-378" rx="316.54" ry="18"/>
<text text-anchor="middle" x="2269.52" y="-374.3" font-family="Times,serif" font-size="14.00">Node { id: &quot;00000007_departure_6&quot;, time: 122, kind: Departure }</text>
</g>
<!-- 7&#45;&gt;12 -->
<g id="edge14" class="edge">
<title>7&#45;&gt;12</title>
<path fill="none" stroke="black" d="M2269.52,-431.7C2269.52,-423.98 2269.52,-414.71 2269.52,-406.11"/>
<polygon fill="black" stroke="black" points="2273.02,-406.1 2269.52,-396.1 2266.02,-406.1 2273.02,-406.1"/>
</g>
<!-- 8 -->
<g id="node9" class="node">
<title>8</title>
<ellipse fill="none" stroke="black" cx="316.52" cy="-378" rx="316.54" ry="18"/>
<text text-anchor="middle" x="316.52" y="-374.3" font-family="Times,serif" font-size="14.00">Node { id: &quot;00000002_departure_1&quot;, time: 142, kind: Departure }</text>
</g>
<!-- 9 -->
<g id="node10" class="node">
<title>9</title>
<ellipse fill="none" stroke="black" cx="316.52" cy="-306" rx="284.85" ry="18"/>
<text text-anchor="middle" x="316.52" y="-302.3" font-family="Times,serif" font-size="14.00">Node { id: &quot;00000003_arrival_1&quot;, time: 160, kind: Arrival }</text>
</g>
<!-- 8&#45;&gt;9 -->
<g id="edge5" class="edge">
<title>8&#45;&gt;9</title>
<path fill="none" stroke="black" d="M316.52,-359.7C316.52,-351.98 316.52,-342.71 316.52,-334.11"/>
<polygon fill="black" stroke="black" points="320.02,-334.1 316.52,-324.1 313.02,-334.1 320.02,-334.1"/>
</g>
<!-- 18 -->
<g id="node19" class="node">
<title>18</title>
<ellipse fill="none" stroke="black" cx="316.52" cy="-234" rx="316.54" ry="18"/>
<text text-anchor="middle" x="316.52" y="-230.3" font-family="Times,serif" font-size="14.00">Node { id: &quot;00000003_departure_1&quot;, time: 162, kind: Departure }</text>
</g>
<!-- 9&#45;&gt;18 -->
<g id="edge15" class="edge">
<title>9&#45;&gt;18</title>
<path fill="none" stroke="black" d="M316.52,-287.7C316.52,-279.98 316.52,-270.71 316.52,-262.11"/>
<polygon fill="black" stroke="black" points="320.02,-262.1 316.52,-252.1 313.02,-262.1 320.02,-262.1"/>
</g>
<!-- 10 -->
<g id="node11" class="node">
<title>10</title>
<ellipse fill="none" stroke="black" cx="316.52" cy="-522" rx="316.54" ry="18"/>
<text text-anchor="middle" x="316.52" y="-518.3" font-family="Times,serif" font-size="14.00">Node { id: &quot;00000001_departure_1&quot;, time: 120, kind: Departure }</text>
</g>
<!-- 11 -->
<g id="node12" class="node">
<title>11</title>
<ellipse fill="none" stroke="black" cx="316.52" cy="-450" rx="284.85" ry="18"/>
<text text-anchor="middle" x="316.52" y="-446.3" font-family="Times,serif" font-size="14.00">Node { id: &quot;00000002_arrival_1&quot;, time: 140, kind: Arrival }</text>
</g>
<!-- 10&#45;&gt;11 -->
<g id="edge6" class="edge">
<title>10&#45;&gt;11</title>
<path fill="none" stroke="black" d="M316.52,-503.7C316.52,-495.98 316.52,-486.71 316.52,-478.11"/>
<polygon fill="black" stroke="black" points="320.02,-478.1 316.52,-468.1 313.02,-478.1 320.02,-478.1"/>
</g>
<!-- 11&#45;&gt;8 -->
<g id="edge13" class="edge">
<title>11&#45;&gt;8</title>
<path fill="none" stroke="black" d="M316.52,-431.7C316.52,-423.98 316.52,-414.71 316.52,-406.11"/>
<polygon fill="black" stroke="black" points="320.02,-406.1 316.52,-396.1 313.02,-406.1 320.02,-406.1"/>
</g>
<!-- 13 -->
<g id="node14" class="node">
<title>13</title>
<ellipse fill="none" stroke="black" cx="2269.52" cy="-306" rx="284.85" ry="18"/>
<text text-anchor="middle" x="2269.52" y="-302.3" font-family="Times,serif" font-size="14.00">Node { id: &quot;00000008_arrival_6&quot;, time: 135, kind: Arrival }</text>
</g>
<!-- 12&#45;&gt;13 -->
<g id="edge7" class="edge">
<title>12&#45;&gt;13</title>
<path fill="none" stroke="black" d="M2269.52,-359.7C2269.52,-351.98 2269.52,-342.71 2269.52,-334.11"/>
<polygon fill="black" stroke="black" points="2273.02,-334.1 2269.52,-324.1 2266.02,-334.1 2273.02,-334.1"/>
</g>
<!-- 14 -->
<g id="node15" class="node">
<title>14</title>
<ellipse fill="none" stroke="black" cx="2920.52" cy="-522" rx="316.54" ry="18"/>
<text text-anchor="middle" x="2920.52" y="-518.3" font-family="Times,serif" font-size="14.00">Node { id: &quot;00000001_departure_2&quot;, time: 100, kind: Departure }</text>
</g>
<!-- 15 -->
<g id="node16" class="node">
<title>15</title>
<ellipse fill="none" stroke="black" cx="2920.52" cy="-450" rx="284.85" ry="18"/>
<text text-anchor="middle" x="2920.52" y="-446.3" font-family="Times,serif" font-size="14.00">Node { id: &quot;00000006_arrival_2&quot;, time: 120, kind: Arrival }</text>
</g>
<!-- 14&#45;&gt;15 -->
<g id="edge8" class="edge">
<title>14&#45;&gt;15</title>
<path fill="none" stroke="black" d="M2920.52,-503.7C2920.52,-495.98 2920.52,-486.71 2920.52,-478.11"/>
<polygon fill="black" stroke="black" points="2924.02,-478.1 2920.52,-468.1 2917.02,-478.1 2924.02,-478.1"/>
</g>
<!-- 16 -->
<g id="node17" class="node">
<title>16</title>
<ellipse fill="none" stroke="black" cx="3571.52" cy="-522" rx="316.54" ry="18"/>
<text text-anchor="middle" x="3571.52" y="-518.3" font-family="Times,serif" font-size="14.00">Node { id: &quot;00000008_departure_7&quot;, time: 140, kind: Departure }</text>
</g>
<!-- 17 -->
<g id="node18" class="node">
<title>17</title>
<ellipse fill="none" stroke="black" cx="3571.52" cy="-450" rx="284.85" ry="18"/>
<text text-anchor="middle" x="3571.52" y="-446.3" font-family="Times,serif" font-size="14.00">Node { id: &quot;00000005_arrival_7&quot;, time: 180, kind: Arrival }</text>
</g>
<!-- 16&#45;&gt;17 -->
<g id="edge9" class="edge">
<title>16&#45;&gt;17</title>
<path fill="none" stroke="black" d="M3571.52,-503.7C3571.52,-495.98 3571.52,-486.71 3571.52,-478.11"/>
<polygon fill="black" stroke="black" points="3575.02,-478.1 3571.52,-468.1 3568.02,-478.1 3575.02,-478.1"/>
</g>
<!-- 19 -->
<g id="node20" class="node">
<title>19</title>
<ellipse fill="none" stroke="black" cx="316.52" cy="-162" rx="284.85" ry="18"/>
<text text-anchor="middle" x="316.52" y="-158.3" font-family="Times,serif" font-size="14.00">Node { id: &quot;00000004_arrival_1&quot;, time: 185, kind: Arrival }</text>
</g>
<!-- 18&#45;&gt;19 -->
<g id="edge10" class="edge">
<title>18&#45;&gt;19</title>
<path fill="none" stroke="black" d="M316.52,-215.7C316.52,-207.98 316.52,-198.71 316.52,-190.11"/>
<polygon fill="black" stroke="black" points="320.02,-190.1 316.52,-180.1 313.02,-190.1 320.02,-190.1"/>
</g>
<!-- 19&#45;&gt;0 -->
<g id="edge12" class="edge">
<title>19&#45;&gt;0</title>
<path fill="none" stroke="black" d="M316.52,-143.7C316.52,-135.98 316.52,-126.71 316.52,-118.11"/>
<polygon fill="black" stroke="black" points="320.02,-118.1 316.52,-108.1 313.02,-118.1 320.02,-118.1"/>
</g>
<!-- 20 -->
<g id="node21" class="node">
<title>20</title>
<ellipse fill="none" stroke="black" cx="4222.52" cy="-522" rx="316.54" ry="18"/>
<text text-anchor="middle" x="4222.52" y="-518.3" font-family="Times,serif" font-size="14.00">Node { id: &quot;00000009_departure_5&quot;, time: 190, kind: Departure }</text>
</g>
<!-- 21 -->
<g id="node22" class="node">
<title>21</title>
<ellipse fill="none" stroke="black" cx="4222.52" cy="-450" rx="284.85" ry="18"/>
<text text-anchor="middle" x="4222.52" y="-446.3" font-family="Times,serif" font-size="14.00">Node { id: &quot;00000005_arrival_5&quot;, time: 230, kind: Arrival }</text>
</g>
<!-- 20&#45;&gt;21 -->
<g id="edge11" class="edge">
<title>20&#45;&gt;21</title>
<path fill="none" stroke="black" d="M4222.52,-503.7C4222.52,-495.98 4222.52,-486.71 4222.52,-478.11"/>
<polygon fill="black" stroke="black" points="4226.02,-478.1 4222.52,-468.1 4219.02,-478.1 4226.02,-478.1"/>
</g>
</g>
</svg>
