<?xml version="1.0" encoding="UTF-8" standalone="no"?>
<!DOCTYPE svg PUBLIC "-//W3C//DTD SVG 1.1//EN"
 "http://www.w3.org/Graphics/SVG/1.1/DTD/svg11.dtd">
<!-- Generated by graphviz version 2.44.1 (0)
 -->
<!-- Pages: 1 -->
<svg width="6197pt" height="620pt"
 viewBox="0.00 0.00 6196.64 620.00" xmlns="http://www.w3.org/2000/svg" xmlns:xlink="http://www.w3.org/1999/xlink">
<g id="graph0" class="graph" transform="scale(1 1) rotate(0) translate(4 616)">
<polygon fill="white" stroke="transparent" points="-4,4 -4,-616 6192.64,-616 6192.64,4 -4,4"/>
<!-- 0 -->
<g id="node1" class="node">
<title>0</title>
<ellipse fill="none" stroke="black" cx="350.32" cy="-522" rx="316.54" ry="18"/>
<text text-anchor="middle" x="350.32" y="-518.3" font-family="Times,serif" font-size="14.00">Node { id: &quot;00000009_departure_5&quot;, time: 190, kind: Departure }</text>
</g>
<!-- 2 -->
<g id="node3" class="node">
<title>2</title>
<ellipse fill="none" stroke="black" cx="350.32" cy="-450" rx="284.85" ry="18"/>
<text text-anchor="middle" x="350.32" y="-446.3" font-family="Times,serif" font-size="14.00">Node { id: &quot;00000005_arrival_5&quot;, time: 230, kind: Arrival }</text>
</g>
<!-- 0&#45;&gt;2 -->
<g id="edge1" class="edge">
<title>0&#45;&gt;2</title>
<path fill="none" stroke="black" d="M350.32,-503.7C350.32,-495.98 350.32,-486.71 350.32,-478.11"/>
<polygon fill="black" stroke="black" points="353.82,-478.1 350.32,-468.1 346.82,-478.1 353.82,-478.1"/>
</g>
<!-- 1 -->
<g id="node2" class="node">
<title>1</title>
<ellipse fill="none" stroke="black" cx="350.32" cy="-594" rx="350.14" ry="18"/>
<text text-anchor="middle" x="350.32" y="-590.3" font-family="Times,serif" font-size="14.00">Node { id: &quot;transfer_00000009_departure_5&quot;, time: 190, kind: Transfer }</text>
</g>
<!-- 1&#45;&gt;0 -->
<g id="edge2" class="edge">
<title>1&#45;&gt;0</title>
<path fill="none" stroke="black" d="M350.32,-575.7C350.32,-567.98 350.32,-558.71 350.32,-550.11"/>
<polygon fill="black" stroke="black" points="353.82,-550.1 350.32,-540.1 346.82,-550.1 353.82,-550.1"/>
</g>
<!-- 3 -->
<g id="node4" class="node">
<title>3</title>
<ellipse fill="none" stroke="black" cx="1656.32" cy="-522" rx="316.54" ry="18"/>
<text text-anchor="middle" x="1656.32" y="-518.3" font-family="Times,serif" font-size="14.00">Node { id: &quot;00000001_departure_1&quot;, time: 120, kind: Departure }</text>
</g>
<!-- 5 -->
<g id="node6" class="node">
<title>5</title>
<ellipse fill="none" stroke="black" cx="1656.32" cy="-450" rx="284.85" ry="18"/>
<text text-anchor="middle" x="1656.32" y="-446.3" font-family="Times,serif" font-size="14.00">Node { id: &quot;00000002_arrival_1&quot;, time: 140, kind: Arrival }</text>
</g>
<!-- 3&#45;&gt;5 -->
<g id="edge3" class="edge">
<title>3&#45;&gt;5</title>
<path fill="none" stroke="black" d="M1656.32,-503.7C1656.32,-495.98 1656.32,-486.71 1656.32,-478.11"/>
<polygon fill="black" stroke="black" points="1659.82,-478.1 1656.32,-468.1 1652.82,-478.1 1659.82,-478.1"/>
</g>
<!-- 4 -->
<g id="node5" class="node">
<title>4</title>
<ellipse fill="none" stroke="black" cx="1656.32" cy="-594" rx="350.14" ry="18"/>
<text text-anchor="middle" x="1656.32" y="-590.3" font-family="Times,serif" font-size="14.00">Node { id: &quot;transfer_00000001_departure_1&quot;, time: 120, kind: Transfer }</text>
</g>
<!-- 4&#45;&gt;3 -->
<g id="edge4" class="edge">
<title>4&#45;&gt;3</title>
<path fill="none" stroke="black" d="M1656.32,-575.7C1656.32,-567.98 1656.32,-558.71 1656.32,-550.11"/>
<polygon fill="black" stroke="black" points="1659.82,-550.1 1656.32,-540.1 1652.82,-550.1 1659.82,-550.1"/>
</g>
<!-- 6 -->
<g id="node7" class="node">
<title>6</title>
<ellipse fill="none" stroke="black" cx="1330.32" cy="-378" rx="316.54" ry="18"/>
<text text-anchor="middle" x="1330.32" y="-374.3" font-family="Times,serif" font-size="14.00">Node { id: &quot;00000002_departure_1&quot;, time: 142, kind: Departure }</text>
</g>
<!-- 5&#45;&gt;6 -->
<g id="edge23" class="edge">
<title>5&#45;&gt;6</title>
<path fill="none" stroke="black" d="M1579.89,-432.59C1531.1,-422.11 1467.75,-408.51 1417.08,-397.63"/>
<polygon fill="black" stroke="black" points="1417.63,-394.17 1407.12,-395.49 1416.16,-401.01 1417.63,-394.17"/>
</g>
<!-- 8 -->
<g id="node9" class="node">
<title>8</title>
<ellipse fill="none" stroke="black" cx="1330.32" cy="-306" rx="284.85" ry="18"/>
<text text-anchor="middle" x="1330.32" y="-302.3" font-family="Times,serif" font-size="14.00">Node { id: &quot;00000003_arrival_1&quot;, time: 160, kind: Arrival }</text>
</g>
<!-- 6&#45;&gt;8 -->
<g id="edge5" class="edge">
<title>6&#45;&gt;8</title>
<path fill="none" stroke="black" d="M1330.32,-359.7C1330.32,-351.98 1330.32,-342.71 1330.32,-334.11"/>
<polygon fill="black" stroke="black" points="1333.82,-334.1 1330.32,-324.1 1326.82,-334.1 1333.82,-334.1"/>
</g>
<!-- 7 -->
<g id="node8" class="node">
<title>7</title>
<ellipse fill="none" stroke="black" cx="1003.32" cy="-450" rx="350.14" ry="18"/>
<text text-anchor="middle" x="1003.32" y="-446.3" font-family="Times,serif" font-size="14.00">Node { id: &quot;transfer_00000002_departure_1&quot;, time: 142, kind: Transfer }</text>
</g>
<!-- 7&#45;&gt;6 -->
<g id="edge6" class="edge">
<title>7&#45;&gt;6</title>
<path fill="none" stroke="black" d="M1080.81,-432.41C1129.68,-421.95 1192.88,-408.42 1243.44,-397.6"/>
<polygon fill="black" stroke="black" points="1244.33,-400.99 1253.38,-395.47 1242.87,-394.14 1244.33,-400.99"/>
</g>
<!-- 9 -->
<g id="node10" class="node">
<title>9</title>
<ellipse fill="none" stroke="black" cx="1003.32" cy="-234" rx="316.54" ry="18"/>
<text text-anchor="middle" x="1003.32" y="-230.3" font-family="Times,serif" font-size="14.00">Node { id: &quot;00000003_departure_1&quot;, time: 162, kind: Departure }</text>
</g>
<!-- 8&#45;&gt;9 -->
<g id="edge24" class="edge">
<title>8&#45;&gt;9</title>
<path fill="none" stroke="black" d="M1253.65,-288.59C1204.72,-278.11 1141.17,-264.51 1090.34,-253.63"/>
<polygon fill="black" stroke="black" points="1090.87,-250.16 1080.35,-251.49 1089.4,-257.01 1090.87,-250.16"/>
</g>
<!-- 11 -->
<g id="node12" class="node">
<title>11</title>
<ellipse fill="none" stroke="black" cx="1003.32" cy="-162" rx="284.85" ry="18"/>
<text text-anchor="middle" x="1003.32" y="-158.3" font-family="Times,serif" font-size="14.00">Node { id: &quot;00000004_arrival_1&quot;, time: 185, kind: Arrival }</text>
</g>
<!-- 9&#45;&gt;11 -->
<g id="edge7" class="edge">
<title>9&#45;&gt;11</title>
<path fill="none" stroke="black" d="M1003.32,-215.7C1003.32,-207.98 1003.32,-198.71 1003.32,-190.11"/>
<polygon fill="black" stroke="black" points="1006.82,-190.1 1003.32,-180.1 999.82,-190.1 1006.82,-190.1"/>
</g>
<!-- 10 -->
<g id="node11" class="node">
<title>10</title>
<ellipse fill="none" stroke="black" cx="677.32" cy="-306" rx="350.14" ry="18"/>
<text text-anchor="middle" x="677.32" y="-302.3" font-family="Times,serif" font-size="14.00">Node { id: &quot;transfer_00000003_departure_1&quot;, time: 162, kind: Transfer }</text>
</g>
<!-- 10&#45;&gt;9 -->
<g id="edge8" class="edge">
<title>10&#45;&gt;9</title>
<path fill="none" stroke="black" d="M754.58,-288.41C803.3,-277.95 866.3,-264.42 916.71,-253.6"/>
<polygon fill="black" stroke="black" points="917.57,-256.99 926.62,-251.47 916.1,-250.15 917.57,-256.99"/>
</g>
<!-- 12 -->
<g id="node13" class="node">
<title>12</title>
<ellipse fill="none" stroke="black" cx="676.32" cy="-90" rx="316.54" ry="18"/>
<text text-anchor="middle" x="676.32" y="-86.3" font-family="Times,serif" font-size="14.00">Node { id: &quot;00000004_departure_1&quot;, time: 190, kind: Departure }</text>
</g>
<!-- 11&#45;&gt;12 -->
<g id="edge25" class="edge">
<title>11&#45;&gt;12</title>
<path fill="none" stroke="black" d="M926.65,-144.59C877.72,-134.11 814.17,-120.51 763.34,-109.63"/>
<polygon fill="black" stroke="black" points="763.87,-106.16 753.35,-107.49 762.4,-113.01 763.87,-106.16"/>
</g>
<!-- 14 -->
<g id="node15" class="node">
<title>14</title>
<ellipse fill="none" stroke="black" cx="676.32" cy="-18" rx="284.85" ry="18"/>
<text text-anchor="middle" x="676.32" y="-14.3" font-family="Times,serif" font-size="14.00">Node { id: &quot;00000005_arrival_1&quot;, time: 220, kind: Arrival }</text>
</g>
<!-- 12&#45;&gt;14 -->
<g id="edge9" class="edge">
<title>12&#45;&gt;14</title>
<path fill="none" stroke="black" d="M676.32,-71.7C676.32,-63.98 676.32,-54.71 676.32,-46.11"/>
<polygon fill="black" stroke="black" points="679.82,-46.1 676.32,-36.1 672.82,-46.1 679.82,-46.1"/>
</g>
<!-- 13 -->
<g id="node14" class="node">
<title>13</title>
<ellipse fill="none" stroke="black" cx="350.32" cy="-162" rx="350.14" ry="18"/>
<text text-anchor="middle" x="350.32" y="-158.3" font-family="Times,serif" font-size="14.00">Node { id: &quot;transfer_00000004_departure_1&quot;, time: 190, kind: Transfer }</text>
</g>
<!-- 13&#45;&gt;12 -->
<g id="edge10" class="edge">
<title>13&#45;&gt;12</title>
<path fill="none" stroke="black" d="M427.58,-144.41C476.3,-133.95 539.3,-120.42 589.71,-109.6"/>
<polygon fill="black" stroke="black" points="590.57,-112.99 599.62,-107.47 589.1,-106.15 590.57,-112.99"/>
</g>
<!-- 15 -->
<g id="node16" class="node">
<title>15</title>
<ellipse fill="none" stroke="black" cx="2375.32" cy="-522" rx="316.54" ry="18"/>
<text text-anchor="middle" x="2375.32" y="-518.3" font-family="Times,serif" font-size="14.00">Node { id: &quot;00000006_departure_3&quot;, time: 130, kind: Departure }</text>
</g>
<!-- 17 -->
<g id="node18" class="node">
<title>17</title>
<ellipse fill="none" stroke="black" cx="2375.32" cy="-450" rx="284.85" ry="18"/>
<text text-anchor="middle" x="2375.32" y="-446.3" font-family="Times,serif" font-size="14.00">Node { id: &quot;00000005_arrival_3&quot;, time: 180, kind: Arrival }</text>
</g>
<!-- 15&#45;&gt;17 -->
<g id="edge11" class="edge">
<title>15&#45;&gt;17</title>
<path fill="none" stroke="black" d="M2375.32,-503.7C2375.32,-495.98 2375.32,-486.71 2375.32,-478.11"/>
<polygon fill="black" stroke="black" points="2378.82,-478.1 2375.32,-468.1 2371.82,-478.1 2378.82,-478.1"/>
</g>
<!-- 16 -->
<g id="node17" class="node">
<title>16</title>
<ellipse fill="none" stroke="black" cx="2375.32" cy="-594" rx="350.14" ry="18"/>
<text text-anchor="middle" x="2375.32" y="-590.3" font-family="Times,serif" font-size="14.00">Node { id: &quot;transfer_00000006_departure_3&quot;, time: 130, kind: Transfer }</text>
</g>
<!-- 16&#45;&gt;15 -->
<g id="edge12" class="edge">
<title>16&#45;&gt;15</title>
<path fill="none" stroke="black" d="M2375.32,-575.7C2375.32,-567.98 2375.32,-558.71 2375.32,-550.11"/>
<polygon fill="black" stroke="black" points="2378.82,-550.1 2375.32,-540.1 2371.82,-550.1 2378.82,-550.1"/>
</g>
<!-- 18 -->
<g id="node19" class="node">
<title>18</title>
<ellipse fill="none" stroke="black" cx="3681.32" cy="-522" rx="316.54" ry="18"/>
<text text-anchor="middle" x="3681.32" y="-518.3" font-family="Times,serif" font-size="14.00">Node { id: &quot;00000001_departure_6&quot;, time: 105, kind: Departure }</text>
</g>
<!-- 20 -->
<g id="node21" class="node">
<title>20</title>
<ellipse fill="none" stroke="black" cx="3681.32" cy="-450" rx="284.85" ry="18"/>
<text text-anchor="middle" x="3681.32" y="-446.3" font-family="Times,serif" font-size="14.00">Node { id: &quot;00000007_arrival_6&quot;, time: 120, kind: Arrival }</text>
</g>
<!-- 18&#45;&gt;20 -->
<g id="edge13" class="edge">
<title>18&#45;&gt;20</title>
<path fill="none" stroke="black" d="M3681.32,-503.7C3681.32,-495.98 3681.32,-486.71 3681.32,-478.11"/>
<polygon fill="black" stroke="black" points="3684.82,-478.1 3681.32,-468.1 3677.82,-478.1 3684.82,-478.1"/>
</g>
<!-- 19 -->
<g id="node20" class="node">
<title>19</title>
<ellipse fill="none" stroke="black" cx="3681.32" cy="-594" rx="350.14" ry="18"/>
<text text-anchor="middle" x="3681.32" y="-590.3" font-family="Times,serif" font-size="14.00">Node { id: &quot;transfer_00000001_departure_6&quot;, time: 105, kind: Transfer }</text>
</g>
<!-- 19&#45;&gt;18 -->
<g id="edge14" class="edge">
<title>19&#45;&gt;18</title>
<path fill="none" stroke="black" d="M3681.32,-575.7C3681.32,-567.98 3681.32,-558.71 3681.32,-550.11"/>
<polygon fill="black" stroke="black" points="3684.82,-550.1 3681.32,-540.1 3677.82,-550.1 3684.82,-550.1"/>
</g>
<!-- 21 -->
<g id="node22" class="node">
<title>21</title>
<ellipse fill="none" stroke="black" cx="3354.32" cy="-378" rx="316.54" ry="18"/>
<text text-anchor="middle" x="3354.32" y="-374.3" font-family="Times,serif" font-size="14.00">Node { id: &quot;00000007_departure_6&quot;, time: 122, kind: Departure }</text>
</g>
<!-- 20&#45;&gt;21 -->
<g id="edge26" class="edge">
<title>20&#45;&gt;21</title>
<path fill="none" stroke="black" d="M3604.65,-432.59C3555.72,-422.11 3492.17,-408.51 3441.34,-397.63"/>
<polygon fill="black" stroke="black" points="3441.87,-394.16 3431.35,-395.49 3440.4,-401.01 3441.87,-394.16"/>
</g>
<!-- 23 -->
<g id="node24" class="node">
<title>23</title>
<ellipse fill="none" stroke="black" cx="3354.32" cy="-306" rx="284.85" ry="18"/>
<text text-anchor="middle" x="3354.32" y="-302.3" font-family="Times,serif" font-size="14.00">Node { id: &quot;00000008_arrival_6&quot;, time: 135, kind: Arrival }</text>
</g>
<!-- 21&#45;&gt;23 -->
<g id="edge15" class="edge">
<title>21&#45;&gt;23</title>
<path fill="none" stroke="black" d="M3354.32,-359.7C3354.32,-351.98 3354.32,-342.71 3354.32,-334.11"/>
<polygon fill="black" stroke="black" points="3357.82,-334.1 3354.32,-324.1 3350.82,-334.1 3357.82,-334.1"/>
</g>
<!-- 22 -->
<g id="node23" class="node">
<title>22</title>
<ellipse fill="none" stroke="black" cx="3028.32" cy="-450" rx="350.14" ry="18"/>
<text text-anchor="middle" x="3028.32" y="-446.3" font-family="Times,serif" font-size="14.00">Node { id: &quot;transfer_00000007_departure_6&quot;, time: 122, kind: Transfer }</text>
</g>
<!-- 22&#45;&gt;21 -->
<g id="edge16" class="edge">
<title>22&#45;&gt;21</title>
<path fill="none" stroke="black" d="M3105.58,-432.41C3154.3,-421.95 3217.3,-408.42 3267.71,-397.6"/>
<polygon fill="black" stroke="black" points="3268.57,-400.99 3277.62,-395.47 3267.1,-394.15 3268.57,-400.99"/>
</g>
<!-- 24 -->
<g id="node25" class="node">
<title>24</title>
<ellipse fill="none" stroke="black" cx="4400.32" cy="-522" rx="316.54" ry="18"/>
<text text-anchor="middle" x="4400.32" y="-518.3" font-family="Times,serif" font-size="14.00">Node { id: &quot;00000001_departure_2&quot;, time: 100, kind: Departure }</text>
</g>
<!-- 26 -->
<g id="node27" class="node">
<title>26</title>
<ellipse fill="none" stroke="black" cx="4400.32" cy="-450" rx="284.85" ry="18"/>
<text text-anchor="middle" x="4400.32" y="-446.3" font-family="Times,serif" font-size="14.00">Node { id: &quot;00000006_arrival_2&quot;, time: 120, kind: Arrival }</text>
</g>
<!-- 24&#45;&gt;26 -->
<g id="edge17" class="edge">
<title>24&#45;&gt;26</title>
<path fill="none" stroke="black" d="M4400.32,-503.7C4400.32,-495.98 4400.32,-486.71 4400.32,-478.11"/>
<polygon fill="black" stroke="black" points="4403.82,-478.1 4400.32,-468.1 4396.82,-478.1 4403.82,-478.1"/>
</g>
<!-- 25 -->
<g id="node26" class="node">
<title>25</title>
<ellipse fill="none" stroke="black" cx="4400.32" cy="-594" rx="350.14" ry="18"/>
<text text-anchor="middle" x="4400.32" y="-590.3" font-family="Times,serif" font-size="14.00">Node { id: &quot;transfer_00000001_departure_2&quot;, time: 100, kind: Transfer }</text>
</g>
<!-- 25&#45;&gt;24 -->
<g id="edge18" class="edge">
<title>25&#45;&gt;24</title>
<path fill="none" stroke="black" d="M4400.32,-575.7C4400.32,-567.98 4400.32,-558.71 4400.32,-550.11"/>
<polygon fill="black" stroke="black" points="4403.82,-550.1 4400.32,-540.1 4396.82,-550.1 4403.82,-550.1"/>
</g>
<!-- 27 -->
<g id="node28" class="node">
<title>27</title>
<ellipse fill="none" stroke="black" cx="5119.32" cy="-522" rx="316.54" ry="18"/>
<text text-anchor="middle" x="5119.32" y="-518.3" font-family="Times,serif" font-size="14.00">Node { id: &quot;00000008_departure_7&quot;, time: 140, kind: Departure }</text>
</g>
<!-- 29 -->
<g id="node30" class="node">
<title>29</title>
<ellipse fill="none" stroke="black" cx="5119.32" cy="-450" rx="284.85" ry="18"/>
<text text-anchor="middle" x="5119.32" y="-446.3" font-family="Times,serif" font-size="14.00">Node { id: &quot;00000005_arrival_7&quot;, time: 180, kind: Arrival }</text>
</g>
<!-- 27&#45;&gt;29 -->
<g id="edge19" class="edge">
<title>27&#45;&gt;29</title>
<path fill="none" stroke="black" d="M5119.32,-503.7C5119.32,-495.98 5119.32,-486.71 5119.32,-478.11"/>
<polygon fill="black" stroke="black" points="5122.82,-478.1 5119.32,-468.1 5115.82,-478.1 5122.82,-478.1"/>
</g>
<!-- 28 -->
<g id="node29" class="node">
<title>28</title>
<ellipse fill="none" stroke="black" cx="5119.32" cy="-594" rx="350.14" ry="18"/>
<text text-anchor="middle" x="5119.32" y="-590.3" font-family="Times,serif" font-size="14.00">Node { id: &quot;transfer_00000008_departure_7&quot;, time: 140, kind: Transfer }</text>
</g>
<!-- 28&#45;&gt;27 -->
<g id="edge20" class="edge">
<title>28&#45;&gt;27</title>
<path fill="none" stroke="black" d="M5119.32,-575.7C5119.32,-567.98 5119.32,-558.71 5119.32,-550.11"/>
<polygon fill="black" stroke="black" points="5122.82,-550.1 5119.32,-540.1 5115.82,-550.1 5122.82,-550.1"/>
</g>
<!-- 30 -->
<g id="node31" class="node">
<title>30</title>
<ellipse fill="none" stroke="black" cx="5838.32" cy="-522" rx="316.54" ry="18"/>
<text text-anchor="middle" x="5838.32" y="-518.3" font-family="Times,serif" font-size="14.00">Node { id: &quot;00000006_departure_4&quot;, time: 125, kind: Departure }</text>
</g>
<!-- 32 -->
<g id="node33" class="node">
<title>32</title>
<ellipse fill="none" stroke="black" cx="5838.32" cy="-450" rx="284.85" ry="18"/>
<text text-anchor="middle" x="5838.32" y="-446.3" font-family="Times,serif" font-size="14.00">Node { id: &quot;00000009_arrival_4&quot;, time: 170, kind: Arrival }</text>
</g>
<!-- 30&#45;&gt;32 -->
<g id="edge21" class="edge">
<title>30&#45;&gt;32</title>
<path fill="none" stroke="black" d="M5838.32,-503.7C5838.32,-495.98 5838.32,-486.71 5838.32,-478.11"/>
<polygon fill="black" stroke="black" points="5841.82,-478.1 5838.32,-468.1 5834.82,-478.1 5841.82,-478.1"/>
</g>
<!-- 31 -->
<g id="node32" class="node">
<title>31</title>
<ellipse fill="none" stroke="black" cx="5838.32" cy="-594" rx="350.14" ry="18"/>
<text text-anchor="middle" x="5838.32" y="-590.3" font-family="Times,serif" font-size="14.00">Node { id: &quot;transfer_00000006_departure_4&quot;, time: 125, kind: Transfer }</text>
</g>
<!-- 31&#45;&gt;30 -->
<g id="edge22" class="edge">
<title>31&#45;&gt;30</title>
<path fill="none" stroke="black" d="M5838.32,-575.7C5838.32,-567.98 5838.32,-558.71 5838.32,-550.11"/>
<polygon fill="black" stroke="black" points="5841.82,-550.1 5838.32,-540.1 5834.82,-550.1 5841.82,-550.1"/>
</g>
</g>
</svg>
